<?xml version="1.0" encoding="UTF-8"?>
<svg width="512px" height="512px" viewBox="0 0 512 512" version="1.1" xmlns="http://www.w3.org/2000/svg" xmlns:xlink="http://www.w3.org/1999/xlink">
    <!-- Generator: Sketch 46.2 (44496) - http://www.bohemiancoding.com/sketch -->
    <title>icon_512x512</title>
    <desc>Created with Sketch.</desc>
    <defs>
        <polygon id="path-1" points="64 0 0 48 0 112 64 160 128 112 128 48"></polygon>
        <path d="M45.6534039,84.7089559 L45.6534039,97.4054197 L15.0588235,128 L0,112.941176 L30.1176471,82.8235294 L43.7426612,82.8235294 C35.3039365,74.0299707 30.1176471,62.091235 30.1176471,48.9411765 C30.1176471,21.9117111 52.0293581,0 79.0588235,0 C106.088289,0 128,21.9117111 128,48.9411765 C128,75.9706419 106.088289,97.8823529 79.0588235,97.8823529 C66.1449913,97.8823529 54.3993526,92.8807218 45.6534039,84.7089559 Z M79.0588235,82.8235294 C97.7715303,82.8235294 112.941176,67.6538833 112.941176,48.9411765 C112.941176,30.2284697 97.7715303,15.0588235 79.0588235,15.0588235 C60.3461167,15.0588235 45.1764706,30.2284697 45.1764706,48.9411765 C45.1764706,67.6538833 60.3461167,82.8235294 79.0588235,82.8235294 Z" id="path-2"></path>
    </defs>
    <g id="Page-1" stroke="none" stroke-width="1" fill="none" fill-rule="evenodd">
        <g id="icon_512x512">
            <g id="Group-3" transform="translate(56.000000, 88.000000)">
                <g id="Page-1-Copy">
                    <polygon id="Fill-1" fill="#41CD52" points="0 288.0032 328 288.0032 384 232.0032 384 0.0032 56 0.0032 0 56.0032"></polygon>
                    <g id="Group-6" transform="translate(72.000000, 48.000000)" fill="#FFFFFF">
                        <path d="M39.3792,138.3936 C44.8752,147.8176 55.4752,152.6656 71.0512,152.6656 C86.6272,152.6656 97.0992,147.9536 102.5952,138.6496 C107.9552,129.3456 110.7072,113.5216 110.7072,91.4016 C110.7072,69.1536 107.9632,53.0576 102.3312,42.9776 C96.7072,32.9056 86.3632,27.9216 71.0512,27.9216 C55.8752,27.9216 45.3952,32.8896 39.6432,42.9776 C34.0112,53.0656 31.1312,69.0256 31.1312,91.1456 C31.1312,113.1296 33.8832,128.9616 39.3792,138.3936 L39.3792,138.3936 Z M70.9232,176.2256 C45.6592,176.2256 27.9952,169.4096 18.0432,155.8016 C8.0992,142.2016 3.1232,120.5936 3.1232,91.2736 C3.1232,61.8336 8.2272,39.9696 18.3072,25.7056 C28.3872,11.4416 46.0512,4.2416 70.9232,4.2416 C95.9152,4.2416 113.4592,11.3056 123.4032,25.5696 C133.4832,39.7056 138.4512,61.5616 138.4512,91.1536 C138.4512,110.6496 136.3632,126.3536 132.3072,138.2656 C128.1152,150.2976 121.4432,159.4656 112.0192,165.7536 L132.4352,198.6016 L107.4352,210.2336 L85.8432,174.7776 C82.6992,175.8016 77.7232,176.1376 70.9232,176.1376 L70.9232,176.2256 Z" id="Fill-2"></path>
                        <path d="M198.66,71.5184 L198.66,125.0464 C198.66,134.9984 199.444,141.5344 200.884,144.8064 C202.316,148.0784 206.116,149.6544 212.004,149.6544 L231.9,148.7984 L233.076,170.0064 C222.212,172.1024 213.972,173.1424 208.212,173.1424 C194.468,173.1424 185.044,170.0064 179.94,163.7184 C174.836,157.4384 172.22,145.5344 172.22,127.9984 L172.22,71.5824 L153.764,71.5824 L153.764,48.9424 L172.348,48.9424 L172.348,13.7344 L198.66,13.7344 L198.66,48.9424 L232.164,48.9424 L232.164,71.4544 L198.66,71.5184 Z" id="Fill-4"></path>
                    </g>
                </g>
                <g id="Group" transform="translate(280.000000, 176.000000)">
                    <g id="Path-29">
                        <use fill="#D8D8D8" fill-rule="evenodd" xlink:href="#path-1"></use>
                        <path stroke="#FFFFFF" stroke-width="7" d="M64,-4.375 L131.5,46.25 L131.5,113.75 L64,164.375 L-3.5,113.75 L-3.5,46.25 L64,-4.375 Z"></path>
                    </g>
                    <polygon id="Path-27" fill="#81CFFF" points="0 48 64 96 128 48 64 0"></polygon>
                    <polygon id="Path-28-Copy" fill="#1F83C1" transform="translate(96.000000, 104.000000) scale(-1, 1) translate(-96.000000, -104.000000) " points="64 48 64 112 128 160 128 96"></polygon>
                    <polygon id="Path-28" fill="#2696DA" points="0 48 0 112 64 160 64 96"></polygon>
                </g>
                <g id="Group-2" transform="translate(200.000000, 208.000000)">
                    <g id="Combined-Shape">
                        <use fill="#707070" fill-rule="evenodd" xlink:href="#path-2"></use>
                        <path stroke="#FFFFFF" stroke-width="7" d="M49.1534039,92.0264501 L49.1534039,98.8551671 L15.0588235,132.949747 L-4.94974747,112.941176 L28.6678996,79.3235294 L36.3089911,79.3235294 C30.0728186,70.5670745 26.6176471,60.0229376 26.6176471,48.9411765 C26.6176471,19.9787144 50.0963615,-3.5 79.0588235,-3.5 C108.021286,-3.5 131.5,19.9787144 131.5,48.9411765 C131.5,77.9036385 108.021286,101.382353 79.0588235,101.382353 C68.1809425,101.382353 57.8185023,98.0537262 49.1534039,92.0264501 Z M79.0588235,79.3235294 C95.8385337,79.3235294 109.441176,65.7208867 109.441176,48.9411765 C109.441176,32.1614663 95.8385337,18.5588235 79.0588235,18.5588235 C62.2791133,18.5588235 48.6764706,32.1614663 48.6764706,48.9411765 C48.6764706,65.7208867 62.2791133,79.3235294 79.0588235,79.3235294 Z"></path>
                    </g>
                </g>
            </g>
        </g>
    </g>
</svg>